<svg width="33" height="28" fill="none" xmlns="http://www.w3.org/2000/svg"><path fill-rule="evenodd" clip-rule="evenodd" d="M2.583 11.683c8.746-3.81 14.578-6.322 17.496-7.536C28.41.682 30.14.08 31.269.06c.249-.004.804.057 1.163.35.304.245.387.578.427.812.04.233.09.765.05 1.18-.451 4.744-2.405 16.256-3.399 21.569-.42 2.248-1.248 3.002-2.05 3.076-1.742.16-3.065-1.152-4.752-2.258-2.64-1.73-4.132-2.808-6.695-4.497-2.962-1.952-1.042-3.025.646-4.778.442-.459 8.118-7.44 8.266-8.074.019-.08.036-.374-.14-.53-.175-.156-.434-.103-.62-.06-.265.06-4.483 2.848-12.655 8.363-1.197.823-2.281 1.223-3.253 1.202-1.071-.023-3.132-.605-4.663-1.103C1.714 14.7.222 14.378.352 13.34c.067-.54.811-1.093 2.231-1.658z" fill="#fff"/></svg>