<svg width="24" height="24" fill="none" xmlns="http://www.w3.org/2000/svg"><path d="M23.867 9.822C20.006 18 18.75 18 18 18h-7.385c-2.586 0-4.568-1.521-5.049-3.877-.015-.072-1.477-7.249-1.85-9.254-.184-.983-.651-1.638-2.331-1.638a1.384 1.384 0 110-2.77c2.787 0 4.582 1.385 5.053 3.9.37 1.983 1.827 9.136 1.842 9.209.294 1.446 1.59 1.662 2.335 1.662h7.02c.755-.81 2.473-3.934 3.728-6.592a1.387 1.387 0 011.843-.661c.692.326.988 1.151.661 1.843zM9.692 18.923a2.307 2.307 0 100 4.615 2.307 2.307 0 000-4.615zm8.308 0a2.307 2.307 0 100 4.615 2.307 2.307 0 000-4.615zm-4.465-7.529a.504.504 0 00.32.111.509.509 0 00.319-.11c.092-.074 2.61-2.53 3.984-4.574a.514.514 0 00-.427-.802h-2.054s-.2-3.96-.332-4.144c-.19-.272-.976-.456-1.492-.456-.517 0-1.317.184-1.508.456-.13.182-.303 4.144-.303 4.144h-2.08a.516.516 0 00-.428.802c1.374 2.045 3.91 4.5 4.002 4.573z" fill="#030104"/></svg>